<?xml version="1.0" encoding="UTF-8"?>
<!DOCTYPE svg PUBLIC "-//W3C//DTD SVG 1.1//EN" "http://www.w3.org/Graphics/SVG/1.1/DTD/svg11.dtd">
<svg xmlns="http://www.w3.org/2000/svg" version="1.1" width="564px" height="443px" style="shape-rendering:geometricPrecision; text-rendering:geometricPrecision; image-rendering:optimizeQuality; fill-rule:evenodd; clip-rule:evenodd" xmlns:xlink="http://www.w3.org/1999/xlink">
<g><path style="opacity:0.475" fill="#5d6672" d="M 399.5,50.5 C 396.497,52.2617 393.163,53.4283 389.5,54C 384.167,54.6667 378.833,55.3333 373.5,56C 364.647,59.0967 355.647,61.5967 346.5,63.5C 363.414,56.5374 381.081,52.2041 399.5,50.5 Z"/></g>
<g><path style="opacity:1" fill="#112029" d="M 323.5,67.5 C 324.5,68.1667 325.5,68.8333 326.5,69.5C 324.25,69.1814 322.25,69.6814 320.5,71C 323.432,73.1303 326.432,74.9637 329.5,76.5C 320.574,78.8144 311.574,80.981 302.5,83C 301.72,84.073 301.887,85.2396 303,86.5C 304.518,87.1634 305.685,88.1634 306.5,89.5C 305.153,88.8288 303.986,88.8288 303,89.5C 302.333,88.1667 301.667,86.8333 301,85.5C 300.395,87.4812 299.395,87.8146 298,86.5C 296.866,89.2753 295.366,91.7753 293.5,94C 296.037,97.5261 295.037,98.3594 290.5,96.5C 289.614,97.325 289.281,98.325 289.5,99.5C 284.346,96.4212 279.346,93.0879 274.5,89.5C 267.792,92.4089 260.792,94.2422 253.5,95C 251.779,95.7393 250.113,96.5726 248.5,97.5C 248.863,98.1835 249.196,98.8501 249.5,99.5C 248.883,99.6107 248.383,99.944 248,100.5C 247.273,98.047 246.273,95.7136 245,93.5C 244.535,94.9308 243.701,96.0975 242.5,97C 239.122,97.4772 235.955,98.3105 233,99.5C 232.167,99.3333 231.333,99.1667 230.5,99C 231.517,97.9505 231.684,96.7839 231,95.5C 229.956,96.6226 229.29,97.9559 229,99.5C 228.667,98.8333 228.333,98.1667 228,97.5C 226.891,99.8147 225.057,101.315 222.5,102C 224.55,102.416 225.884,103.583 226.5,105.5C 223.436,103.657 220.103,103.157 216.5,104C 209.167,106.333 201.833,108.667 194.5,111C 196.396,113.068 198.396,114.901 200.5,116.5C 199.504,116.586 198.671,116.252 198,115.5C 198.077,116.738 197.911,117.738 197.5,118.5C 195.386,117.086 193.386,115.586 191.5,114C 192.502,111.003 193.502,108.003 194.5,105C 193.833,104.667 193.167,104.333 192.5,104C 196.877,102.903 197.877,100.736 195.5,97.5C 197.828,94.5593 196.828,93.3926 192.5,94C 188.721,97.5531 184.388,100.053 179.5,101.5C 196.476,86.3401 216.143,75.8401 238.5,70C 262.903,64.1327 287.57,62.4661 312.5,65C 316.392,65.4188 320.058,66.2521 323.5,67.5 Z"/></g>
<g><path style="opacity:0.643" fill="#5d6472" d="M 346.5,63.5 C 340.728,68.0873 334.062,70.0873 326.5,69.5C 325.5,68.8333 324.5,68.1667 323.5,67.5C 331.513,67.8332 339.18,66.4998 346.5,63.5 Z"/></g>
<g><path style="opacity:1" fill="#f2f5f6" d="M 329.5,76.5 C 330.659,78.2503 332.326,79.2503 334.5,79.5C 339.22,84.3711 344.554,88.5377 350.5,92C 352.394,93.1011 353.061,94.4345 352.5,96C 343.94,97.7981 335.607,100.298 327.5,103.5C 320.507,98.8428 313.507,94.1761 306.5,89.5C 305.685,88.1634 304.518,87.1634 303,86.5C 301.887,85.2396 301.72,84.073 302.5,83C 311.574,80.981 320.574,78.8144 329.5,76.5 Z"/></g>
<g><path style="opacity:1" fill="#13202a" d="M 411.5,111.5 C 413.759,114.938 416.259,118.271 419,121.5C 420.651,123.21 422.484,124.544 424.5,125.5C 426.504,126.673 428.004,128.34 429,130.5C 429.333,134.833 429.667,139.167 430,143.5C 433,147.167 436,150.833 439,154.5C 469.707,208.486 474.04,264.486 452,322.5C 449.074,328.688 445.907,334.688 442.5,340.5C 442.229,338.179 442.896,336.179 444.5,334.5C 444.333,334.167 444.167,333.833 444,333.5C 442.667,334.167 441.333,334.833 440,335.5C 439.833,335.167 439.667,334.833 439.5,334.5C 443.361,333.402 443.361,332.569 439.5,332C 440.938,331.781 442.271,331.281 443.5,330.5C 440.376,327.492 440.376,324.992 443.5,323C 442.216,322.316 441.049,322.483 440,323.5C 439.51,322.207 439.343,320.873 439.5,319.5C 441.92,319.708 444.253,319.374 446.5,318.5C 447.328,313.868 447.828,309.202 448,304.5C 449.011,303.663 450.178,303.33 451.5,303.5C 451.201,301.396 451.534,299.396 452.5,297.5C 454.621,294.098 456.787,290.764 459,287.5C 458.785,282.974 459.618,278.474 461.5,274C 460.692,273.692 460.025,273.192 459.5,272.5C 460.617,271.051 461.284,269.384 461.5,267.5C 460.488,263.629 459.488,259.795 458.5,256C 459.202,247.809 459.202,239.642 458.5,231.5C 456.848,227.456 456.015,223.456 456,219.5C 455.667,220.833 455.333,222.167 455,223.5C 454.813,216.919 454.313,210.419 453.5,204C 454.122,202.431 454.456,200.764 454.5,199C 454.519,195.927 453.853,193.093 452.5,190.5C 451.178,190.33 450.011,190.663 449,191.5C 447.784,189.038 447.118,186.371 447,183.5C 444.815,181.46 442.315,180.126 439.5,179.5C 439.67,178.178 439.337,177.011 438.5,176C 440.23,174.148 441.396,174.314 442,176.5C 443.959,173.222 443.126,170.722 439.5,169C 440.451,168.282 440.617,167.449 440,166.5C 438.644,167.38 437.144,167.714 435.5,167.5C 435.444,170.394 434.61,173.061 433,175.5C 431.648,173.406 431.148,171.073 431.5,168.5C 430.235,167.332 428.235,166.332 425.5,165.5C 425.174,163.49 424.841,161.49 424.5,159.5C 421.634,160.795 418.801,160.795 416,159.5C 415.219,158.271 414.719,156.938 414.5,155.5C 416.083,154.071 416.75,152.571 416.5,151C 413.103,147.399 412.77,143.566 415.5,139.5C 413.009,138.459 413.009,137.626 415.5,137C 415,136.5 414.5,136 414,135.5C 412.586,136.413 411.086,136.413 409.5,135.5C 410.942,134.18 411.608,132.514 411.5,130.5C 402.161,130.334 392.827,130.5 383.5,131C 381.963,132.707 380.296,134.207 378.5,135.5C 378.265,130.89 377.265,127.223 375.5,124.5C 371.161,125.154 367.327,124.154 364,121.5C 363.544,120.256 364.044,119.423 365.5,119C 362.722,117.608 359.722,117.108 356.5,117.5C 356.662,115.473 356.495,113.473 356,111.5C 354.135,115.415 351.968,115.915 349.5,113C 352.041,111.152 353.041,108.652 352.5,105.5C 355.718,105.349 356.051,104.516 353.5,103C 355.608,102.64 357.608,101.973 359.5,101C 357.968,100.3 356.968,99.1338 356.5,97.5C 358.821,94.2041 361.154,90.8708 363.5,87.5C 363.392,86.5581 363.059,85.7247 362.5,85C 364.5,84.6667 366.5,84.3333 368.5,84C 364.137,82.7812 361.47,79.9479 360.5,75.5C 367.463,79.9607 374.296,84.6273 381,89.5C 389.115,85.9008 397.615,83.2341 406.5,81.5C 403.451,77.6231 399.784,74.1231 395.5,71C 390.294,67.5658 384.961,64.3992 379.5,61.5C 372.409,64.2517 365.075,66.085 357.5,67C 356.241,67.9234 354.908,68.7568 353.5,69.5C 355.188,70.5213 356.521,71.8546 357.5,73.5C 355.518,73.9954 353.518,74.4954 351.5,75C 351.833,75.3333 352.167,75.6667 352.5,76C 350.414,80.3467 348.081,80.5134 345.5,76.5C 340.559,74.179 335.559,74.0123 330.5,76C 332.167,76.3333 333.833,76.6667 335.5,77C 333.381,77.3418 333.047,78.1751 334.5,79.5C 332.326,79.2503 330.659,78.2503 329.5,76.5C 326.432,74.9637 323.432,73.1303 320.5,71C 322.25,69.6814 324.25,69.1814 326.5,69.5C 334.062,70.0873 340.728,68.0873 346.5,63.5C 355.647,61.5967 364.647,59.0967 373.5,56C 378.833,55.3333 384.167,54.6667 389.5,54C 393.163,53.4283 396.497,52.2617 399.5,50.5C 402.929,49.6985 406.429,49.0318 410,48.5C 411.711,48.4393 413.044,49.1059 414,50.5C 417.109,59.3875 420.776,68.0541 425,76.5C 425.777,79.4294 425.61,82.2628 424.5,85C 414.488,88.6683 404.488,92.335 394.5,96C 400.199,101.174 405.865,106.341 411.5,111.5 Z"/></g>
<g><path style="opacity:1" fill="#f2f5f5" d="M 360.5,75.5 C 359.5,74.8333 358.5,74.1667 357.5,73.5C 356.521,71.8546 355.188,70.5213 353.5,69.5C 354.908,68.7568 356.241,67.9234 357.5,67C 365.075,66.085 372.409,64.2517 379.5,61.5C 384.961,64.3992 390.294,67.5658 395.5,71C 399.784,74.1231 403.451,77.6231 406.5,81.5C 397.615,83.2341 389.115,85.9008 381,89.5C 374.296,84.6273 367.463,79.9607 360.5,75.5 Z"/></g>
<g><path style="opacity:1" fill="#f3f5f6" d="M 289.5,99.5 C 292.366,102.521 295.7,105.021 299.5,107C 300.337,108.011 300.67,109.178 300.5,110.5C 291.71,110.781 283.377,112.781 275.5,116.5C 266.502,111.335 257.835,105.668 249.5,99.5C 249.196,98.8501 248.863,98.1835 248.5,97.5C 250.113,96.5726 251.779,95.7393 253.5,95C 260.792,94.2422 267.792,92.4089 274.5,89.5C 279.346,93.0879 284.346,96.4212 289.5,99.5 Z"/></g>
<g><path style="opacity:1" fill="#111e26" d="M 357.5,73.5 C 358.5,74.1667 359.5,74.8333 360.5,75.5C 361.47,79.9479 364.137,82.7812 368.5,84C 366.5,84.3333 364.5,84.6667 362.5,85C 363.059,85.7247 363.392,86.5581 363.5,87.5C 361.154,90.8708 358.821,94.2041 356.5,97.5C 356.968,99.1338 357.968,100.3 359.5,101C 357.608,101.973 355.608,102.64 353.5,103C 356.051,104.516 355.718,105.349 352.5,105.5C 353.041,108.652 352.041,111.152 349.5,113C 351.968,115.915 354.135,115.415 356,111.5C 356.495,113.473 356.662,115.473 356.5,117.5C 359.722,117.108 362.722,117.608 365.5,119C 364.044,119.423 363.544,120.256 364,121.5C 367.327,124.154 371.161,125.154 375.5,124.5C 377.265,127.223 378.265,130.89 378.5,135.5C 373.921,140.354 369.587,145.354 365.5,150.5C 364.778,150.082 364.278,149.416 364,148.5C 363.099,151.071 361.766,153.404 360,155.5C 359.289,153.633 359.789,152.133 361.5,151C 359.091,150.252 356.925,149.085 355,147.5C 351.706,149.645 351.872,150.979 355.5,151.5C 355.796,154.263 356.796,156.763 358.5,159C 357.207,159.49 355.873,159.657 354.5,159.5C 355.351,157.296 354.351,155.963 351.5,155.5C 350.709,156.066 350.709,156.899 351.5,158C 351.095,158.945 350.428,159.612 349.5,160C 351.414,164.858 352.081,170.025 351.5,175.5C 346.167,175.5 340.833,175.5 335.5,175.5C 335.351,171.678 333.351,169.345 329.5,168.5C 322.118,161.748 322.618,159.414 331,161.5C 331.456,160.256 330.956,159.423 329.5,159C 330.5,158.667 331.5,158.333 332.5,158C 327.833,157.333 323.167,157.333 318.5,158C 317.944,158.383 317.611,158.883 317.5,159.5C 315.143,159.663 312.81,159.497 310.5,159C 310.833,158.667 311.167,158.333 311.5,158C 309.942,157.79 308.609,157.29 307.5,156.5C 316.839,156.666 326.173,156.5 335.5,156C 342.278,147.386 349.611,139.219 357.5,131.5C 347.517,130.334 337.517,130.168 327.5,131C 323.635,135.694 319.635,140.194 315.5,144.5C 315.848,140.806 317.515,137.806 320.5,135.5C 319.118,131.284 316.285,128.618 312,127.5C 309.476,130.346 306.31,132.012 302.5,132.5C 303.598,131.603 303.598,130.77 302.5,130C 301.207,129.51 299.873,129.343 298.5,129.5C 298.389,128.883 298.056,128.383 297.5,128C 300.809,126.544 304.143,126.211 307.5,127C 306.884,124.821 305.717,122.988 304,121.5C 303.904,118.549 303.071,115.882 301.5,113.5C 302.777,112.078 302.443,111.078 300.5,110.5C 300.67,109.178 300.337,108.011 299.5,107C 295.7,105.021 292.366,102.521 289.5,99.5C 289.281,98.325 289.614,97.325 290.5,96.5C 295.037,98.3594 296.037,97.5261 293.5,94C 295.366,91.7753 296.866,89.2753 298,86.5C 299.395,87.8146 300.395,87.4812 301,85.5C 301.667,86.8333 302.333,88.1667 303,89.5C 303.986,88.8288 305.153,88.8288 306.5,89.5C 313.507,94.1761 320.507,98.8428 327.5,103.5C 335.607,100.298 343.94,97.7981 352.5,96C 353.061,94.4345 352.394,93.1011 350.5,92C 344.554,88.5377 339.22,84.3711 334.5,79.5C 333.047,78.1751 333.381,77.3418 335.5,77C 333.833,76.6667 332.167,76.3333 330.5,76C 335.559,74.0123 340.559,74.179 345.5,76.5C 348.081,80.5134 350.414,80.3467 352.5,76C 352.167,75.6667 351.833,75.3333 351.5,75C 353.518,74.4954 355.518,73.9954 357.5,73.5 Z"/></g>
<g><path style="opacity:0.125" fill="#565e67" d="M 411.5,111.5 C 417.2,114.9 421.533,119.567 424.5,125.5C 422.484,124.544 420.651,123.21 419,121.5C 416.259,118.271 413.759,114.938 411.5,111.5 Z"/></g>
<g><path style="opacity:1" fill="#0f1c24" d="M 200.5,116.5 C 207.645,120.24 214.645,124.24 221.5,128.5C 229.885,125.095 238.552,122.595 247.5,121C 240.076,116.3 233.076,111.134 226.5,105.5C 225.884,103.583 224.55,102.416 222.5,102C 225.057,101.315 226.891,99.8147 228,97.5C 228.333,98.1667 228.667,98.8333 229,99.5C 229.29,97.9559 229.956,96.6226 231,95.5C 231.684,96.7839 231.517,97.9505 230.5,99C 231.333,99.1667 232.167,99.3333 233,99.5C 235.955,98.3105 239.122,97.4772 242.5,97C 243.701,96.0975 244.535,94.9308 245,93.5C 246.273,95.7136 247.273,98.047 248,100.5C 248.383,99.944 248.883,99.6107 249.5,99.5C 257.835,105.668 266.502,111.335 275.5,116.5C 283.377,112.781 291.71,110.781 300.5,110.5C 302.443,111.078 302.777,112.078 301.5,113.5C 303.071,115.882 303.904,118.549 304,121.5C 305.717,122.988 306.884,124.821 307.5,127C 304.143,126.211 300.809,126.544 297.5,128C 298.056,128.383 298.389,128.883 298.5,129.5C 290.316,129.174 282.316,129.508 274.5,130.5C 266.559,137.742 259.559,145.742 253.5,154.5C 252.957,154.56 252.624,154.893 252.5,155.5C 261.658,156.822 270.658,156.822 279.5,155.5C 285.806,148.86 292.139,142.193 298.5,135.5C 300.404,135.262 301.738,134.262 302.5,132.5C 306.31,132.012 309.476,130.346 312,127.5C 316.285,128.618 319.118,131.284 320.5,135.5C 317.515,137.806 315.848,140.806 315.5,144.5C 312.327,148.185 309.66,152.185 307.5,156.5C 308.609,157.29 309.942,157.79 311.5,158C 311.167,158.333 310.833,158.667 310.5,159C 312.81,159.497 315.143,159.663 317.5,159.5C 320.031,160.832 319.698,161.832 316.5,162.5C 311.969,162.177 307.302,161.177 302.5,159.5C 301.769,161.401 301.769,163.401 302.5,165.5C 305.39,165.278 308.057,165.945 310.5,167.5C 311.668,165.603 313.335,165.436 315.5,167C 314.377,168.044 313.044,168.71 311.5,169C 312.308,169.308 312.975,169.808 313.5,170.5C 311.314,171.221 309.147,171.887 307,172.5C 305.391,171.85 303.891,172.35 302.5,174C 299.518,174.498 296.518,174.665 293.5,174.5C 293.36,172.876 294.027,171.71 295.5,171C 287.32,169.553 279.986,171.719 273.5,177.5C 271.751,173.298 269.417,169.465 266.5,166C 267.029,164.441 267.696,162.941 268.5,161.5C 260.168,158.095 255.501,160.762 254.5,169.5C 247.89,166.287 244.89,160.954 245.5,153.5C 243.5,153.5 241.5,153.5 239.5,153.5C 239.167,150.5 240.5,149.167 243.5,149.5C 242.802,143.418 243.802,137.751 246.5,132.5C 245.486,131.235 243.986,130.569 242,130.5C 234.204,131.87 226.371,133.037 218.5,134C 213.331,138.337 208.331,142.837 203.5,147.5C 202.093,144.961 200.927,145.294 200,148.5C 199.667,148.167 199.333,147.833 199,147.5C 195.646,148.811 192.146,149.644 188.5,150C 186.559,151.816 185.892,153.816 186.5,156C 183.407,159.372 183.073,162.872 185.5,166.5C 184.833,167.167 184.167,167.833 183.5,168.5C 186.204,169.572 188.87,170.572 191.5,171.5C 191.5,172.833 191.5,174.167 191.5,175.5C 189.897,175.312 188.563,175.812 187.5,177C 188.333,177.167 189.167,177.333 190,177.5C 193.164,176.371 196.164,175.037 199,173.5C 199.499,178.823 199.666,184.156 199.5,189.5C 201.857,189.337 204.19,189.503 206.5,190C 205.409,192.064 205.242,194.231 206,196.5C 207.529,197.729 208.696,199.229 209.5,201C 211.701,201.825 213.534,201.325 215,199.5C 217.456,201.321 220.289,201.988 223.5,201.5C 223.343,202.873 223.51,204.207 224,205.5C 226.386,204.237 228.219,202.403 229.5,200C 232.817,199.502 236.15,199.335 239.5,199.5C 239.5,198.167 239.5,196.833 239.5,195.5C 242.5,195.167 243.833,196.5 243.5,199.5C 244.5,199.5 245.5,199.5 246.5,199.5C 246.337,201.857 246.503,204.19 247,206.5C 248.993,208.818 250.159,211.484 250.5,214.5C 249.178,214.33 248.011,214.663 247,215.5C 246.592,218.42 245.259,220.754 243,222.5C 242.867,228.095 240.533,232.428 236,235.5C 234.908,238.044 234.241,240.711 234,243.5C 231.09,244.45 229.923,246.45 230.5,249.5C 229.5,249.5 228.5,249.5 227.5,249.5C 227.404,245.527 226.737,242.194 225.5,239.5C 224.022,239.762 222.689,239.429 221.5,238.5C 214.98,229.778 209.48,220.444 205,210.5C 203.989,209.663 202.822,209.33 201.5,209.5C 199.44,206.76 197.774,203.76 196.5,200.5C 193.949,196.217 191.616,191.717 189.5,187C 190.167,185.667 190.833,184.333 191.5,183C 191.167,182.5 190.833,182 190.5,181.5C 189.377,183.289 188.044,183.622 186.5,182.5C 185.422,179.793 184.422,177.126 183.5,174.5C 181.019,174.677 179.186,173.677 178,171.5C 176.846,167.546 176.013,163.546 175.5,159.5C 167.653,160.475 159.987,160.475 152.5,159.5C 151.167,159.167 149.833,158.833 148.5,158.5C 149.949,157.828 151.282,157.161 152.5,156.5C 159.584,157.126 166.25,156.459 172.5,154.5C 177.312,145.685 184.312,139.352 193.5,135.5C 193.719,134.325 193.386,133.325 192.5,132.5C 185.152,128.16 178.152,123.327 171.5,118C 169.5,117.333 167.5,117.333 165.5,118C 161.673,119.79 157.673,120.956 153.5,121.5C 149.505,122.117 146.172,120.951 143.5,118C 146.069,117.102 148.402,115.935 150.5,114.5C 157.507,111.405 164.84,108.905 172.5,107C 174.441,104.546 176.775,102.713 179.5,101.5C 184.388,100.053 188.721,97.5531 192.5,94C 196.828,93.3926 197.828,94.5593 195.5,97.5C 197.877,100.736 196.877,102.903 192.5,104C 193.167,104.333 193.833,104.667 194.5,105C 193.502,108.003 192.502,111.003 191.5,114C 193.386,115.586 195.386,117.086 197.5,118.5C 197.911,117.738 198.077,116.738 198,115.5C 198.671,116.252 199.504,116.586 200.5,116.5 Z"/></g>
<g><path style="opacity:1" fill="#f3f5f6" d="M 226.5,105.5 C 233.076,111.134 240.076,116.3 247.5,121C 238.552,122.595 229.885,125.095 221.5,128.5C 214.645,124.24 207.645,120.24 200.5,116.5C 198.396,114.901 196.396,113.068 194.5,111C 201.833,108.667 209.167,106.333 216.5,104C 220.103,103.157 223.436,103.657 226.5,105.5 Z"/></g>
<g><path style="opacity:1" fill="#f5f7f8" d="M 172.5,154.5 C 164.401,155.138 156.401,155.805 148.5,156.5C 146.972,156.483 146.472,155.816 147,154.5C 150.642,149.854 155.142,146.354 160.5,144C 164.5,141.333 164.5,138.667 160.5,136C 154.669,132.919 149.002,129.585 143.5,126C 146.703,123.997 150.036,122.497 153.5,121.5C 157.673,120.956 161.673,119.79 165.5,118C 167.5,117.333 169.5,117.333 171.5,118C 178.152,123.327 185.152,128.16 192.5,132.5C 193.386,133.325 193.719,134.325 193.5,135.5C 184.312,139.352 177.312,145.685 172.5,154.5 Z"/></g>
<g><path style="opacity:1" fill="#575d65" d="M 274.5,130.5 C 282.316,129.508 290.316,129.174 298.5,129.5C 299.873,129.343 301.207,129.51 302.5,130C 303.598,130.77 303.598,131.603 302.5,132.5C 301.738,134.262 300.404,135.262 298.5,135.5C 299.476,134.185 300.476,132.852 301.5,131.5C 292.525,130.502 283.525,130.168 274.5,130.5 Z"/></g>
<g><path style="opacity:1" fill="#f7f9f9" d="M 274.5,130.5 C 283.525,130.168 292.525,130.502 301.5,131.5C 300.476,132.852 299.476,134.185 298.5,135.5C 292.139,142.193 285.806,148.86 279.5,155.5C 270.651,155.826 261.984,155.493 253.5,154.5C 259.559,145.742 266.559,137.742 274.5,130.5 Z"/></g>
<g><path style="opacity:1" fill="#f4f6f7" d="M 307.5,156.5 C 309.66,152.185 312.327,148.185 315.5,144.5C 319.635,140.194 323.635,135.694 327.5,131C 337.517,130.168 347.517,130.334 357.5,131.5C 349.611,139.219 342.278,147.386 335.5,156C 326.173,156.5 316.839,156.666 307.5,156.5 Z"/></g>
<g><path style="opacity:1" fill="#f5f7f7" d="M 409.5,135.5 C 404.503,139.664 400.003,144.331 396,149.5C 395.086,151.664 393.919,153.664 392.5,155.5C 382.833,156.833 373.167,156.833 363.5,155.5C 364.456,153.925 365.123,152.258 365.5,150.5C 369.587,145.354 373.921,140.354 378.5,135.5C 380.296,134.207 381.963,132.707 383.5,131C 392.827,130.5 402.161,130.334 411.5,130.5C 411.608,132.514 410.942,134.18 409.5,135.5 Z"/></g>
<g><path style="opacity:1" fill="#f4f6f7" d="M 246.5,132.5 C 244.284,133.203 242.451,134.536 241,136.5C 236.008,143.322 230.508,149.655 224.5,155.5C 215.651,155.826 206.984,155.493 198.5,154.5C 200.555,152.445 202.221,150.112 203.5,147.5C 208.331,142.837 213.331,138.337 218.5,134C 226.371,133.037 234.204,131.87 242,130.5C 243.986,130.569 245.486,131.235 246.5,132.5 Z"/></g>
<g><path style="opacity:1" fill="#111f28" d="M 150.5,114.5 C 148.402,115.935 146.069,117.102 143.5,118C 146.172,120.951 149.505,122.117 153.5,121.5C 150.036,122.497 146.703,123.997 143.5,126C 149.002,129.585 154.669,132.919 160.5,136C 164.5,138.667 164.5,141.333 160.5,144C 155.142,146.354 150.642,149.854 147,154.5C 146.472,155.816 146.972,156.483 148.5,156.5C 149.833,156.5 151.167,156.5 152.5,156.5C 151.282,157.161 149.949,157.828 148.5,158.5C 149.833,158.833 151.167,159.167 152.5,159.5C 159.987,160.475 167.653,160.475 175.5,159.5C 176.013,163.546 176.846,167.546 178,171.5C 179.186,173.677 181.019,174.677 183.5,174.5C 184.422,177.126 185.422,179.793 186.5,182.5C 188.044,183.622 189.377,183.289 190.5,181.5C 190.833,182 191.167,182.5 191.5,183C 190.833,184.333 190.167,185.667 189.5,187C 191.616,191.717 193.949,196.217 196.5,200.5C 190.767,193.382 185.767,185.716 181.5,177.5C 169.345,176.505 157.011,176.171 144.5,176.5C 144.263,177.791 144.596,178.791 145.5,179.5C 145.5,180.833 145.5,182.167 145.5,183.5C 144.169,237.002 144.169,290.668 145.5,344.5C 150.939,349.598 155.605,355.265 159.5,361.5C 154.459,357.615 149.626,353.615 145,349.5C 144.667,349.833 144.333,350.167 144,350.5C 140.693,347.508 136.86,346.341 132.5,347C 134.16,348.488 135.16,350.321 135.5,352.5C 119.006,328.468 108.84,301.801 105,272.5C 101.14,236.128 106.473,201.128 121,167.5C 125.186,158.464 129.353,149.464 133.5,140.5C 130.934,134.973 129.101,129.306 128,123.5C 128.5,122.333 129.333,121.5 130.5,121C 137.095,118.532 143.761,116.365 150.5,114.5 Z"/></g>
<g><path style="opacity:1" fill="#101f27" d="M 246.5,132.5 C 243.802,137.751 242.802,143.418 243.5,149.5C 240.5,149.167 239.167,150.5 239.5,153.5C 241.5,153.5 243.5,153.5 245.5,153.5C 244.89,160.954 247.89,166.287 254.5,169.5C 255.501,160.762 260.168,158.095 268.5,161.5C 267.696,162.941 267.029,164.441 266.5,166C 269.417,169.465 271.751,173.298 273.5,177.5C 271.925,179.114 271.259,181.114 271.5,183.5C 271.167,184.833 270.833,186.167 270.5,187.5C 259.001,205.158 248.001,223.158 237.5,241.5C 234.691,245.768 231.857,250.102 229,254.5C 228.283,253.956 227.783,253.289 227.5,252.5C 218.86,238.184 210.194,223.851 201.5,209.5C 202.822,209.33 203.989,209.663 205,210.5C 209.48,220.444 214.98,229.778 221.5,238.5C 222.689,239.429 224.022,239.762 225.5,239.5C 226.737,242.194 227.404,245.527 227.5,249.5C 228.5,249.5 229.5,249.5 230.5,249.5C 229.923,246.45 231.09,244.45 234,243.5C 234.241,240.711 234.908,238.044 236,235.5C 240.533,232.428 242.867,228.095 243,222.5C 245.259,220.754 246.592,218.42 247,215.5C 248.011,214.663 249.178,214.33 250.5,214.5C 250.159,211.484 248.993,208.818 247,206.5C 246.503,204.19 246.337,201.857 246.5,199.5C 245.5,199.5 244.5,199.5 243.5,199.5C 243.833,196.5 242.5,195.167 239.5,195.5C 239.5,196.833 239.5,198.167 239.5,199.5C 236.15,199.335 232.817,199.502 229.5,200C 228.219,202.403 226.386,204.237 224,205.5C 223.51,204.207 223.343,202.873 223.5,201.5C 220.289,201.988 217.456,201.321 215,199.5C 213.534,201.325 211.701,201.825 209.5,201C 208.696,199.229 207.529,197.729 206,196.5C 205.242,194.231 205.409,192.064 206.5,190C 204.19,189.503 201.857,189.337 199.5,189.5C 199.666,184.156 199.499,178.823 199,173.5C 196.164,175.037 193.164,176.371 190,177.5C 189.167,177.333 188.333,177.167 187.5,177C 188.563,175.812 189.897,175.312 191.5,175.5C 191.5,174.167 191.5,172.833 191.5,171.5C 188.87,170.572 186.204,169.572 183.5,168.5C 184.167,167.833 184.833,167.167 185.5,166.5C 183.073,162.872 183.407,159.372 186.5,156C 185.892,153.816 186.559,151.816 188.5,150C 192.146,149.644 195.646,148.811 199,147.5C 199.333,147.833 199.667,148.167 200,148.5C 200.927,145.294 202.093,144.961 203.5,147.5C 202.221,150.112 200.555,152.445 198.5,154.5C 197.711,154.783 197.044,155.283 196.5,156C 206.009,156.824 215.343,156.658 224.5,155.5C 230.508,149.655 236.008,143.322 241,136.5C 242.451,134.536 244.284,133.203 246.5,132.5 Z"/></g>
<g><path style="opacity:1" fill="#101e27" d="M 409.5,135.5 C 411.086,136.413 412.586,136.413 414,135.5C 414.5,136 415,136.5 415.5,137C 413.009,137.626 413.009,138.459 415.5,139.5C 412.77,143.566 413.103,147.399 416.5,151C 416.75,152.571 416.083,154.071 414.5,155.5C 414.719,156.938 415.219,158.271 416,159.5C 418.801,160.795 421.634,160.795 424.5,159.5C 424.841,161.49 425.174,163.49 425.5,165.5C 428.235,166.332 430.235,167.332 431.5,168.5C 431.148,171.073 431.648,173.406 433,175.5C 434.61,173.061 435.444,170.394 435.5,167.5C 437.144,167.714 438.644,167.38 440,166.5C 440.617,167.449 440.451,168.282 439.5,169C 443.126,170.722 443.959,173.222 442,176.5C 441.396,174.314 440.23,174.148 438.5,176C 439.337,177.011 439.67,178.178 439.5,179.5C 442.315,180.126 444.815,181.46 447,183.5C 447.118,186.371 447.784,189.038 449,191.5C 450.011,190.663 451.178,190.33 452.5,190.5C 453.853,193.093 454.519,195.927 454.5,199C 454.456,200.764 454.122,202.431 453.5,204C 454.313,210.419 454.813,216.919 455,223.5C 455.333,222.167 455.667,220.833 456,219.5C 456.015,223.456 456.848,227.456 458.5,231.5C 459.202,239.642 459.202,247.809 458.5,256C 459.488,259.795 460.488,263.629 461.5,267.5C 461.284,269.384 460.617,271.051 459.5,272.5C 460.025,273.192 460.692,273.692 461.5,274C 459.618,278.474 458.785,282.974 459,287.5C 456.787,290.764 454.621,294.098 452.5,297.5C 451.534,299.396 451.201,301.396 451.5,303.5C 450.178,303.33 449.011,303.663 448,304.5C 447.828,309.202 447.328,313.868 446.5,318.5C 444.253,319.374 441.92,319.708 439.5,319.5C 439.343,320.873 439.51,322.207 440,323.5C 441.049,322.483 442.216,322.316 443.5,323C 440.376,324.992 440.376,327.492 443.5,330.5C 442.271,331.281 440.938,331.781 439.5,332C 443.361,332.569 443.361,333.402 439.5,334.5C 439.667,334.833 439.833,335.167 440,335.5C 441.333,334.833 442.667,334.167 444,333.5C 444.167,333.833 444.333,334.167 444.5,334.5C 442.896,336.179 442.229,338.179 442.5,340.5C 442.509,342.308 442.009,343.975 441,345.5C 394.013,414.225 329.18,441.725 246.5,428C 237.218,425.626 228.218,422.793 219.5,419.5C 218.909,418.849 218.243,418.182 217.5,417.5C 219.365,416.334 221.032,416.667 222.5,418.5C 225.757,416.894 227.924,417.894 229,421.5C 229.561,420.978 230.228,420.645 231,420.5C 233.728,420.764 236.061,421.764 238,423.5C 239.84,422.167 240.34,422.334 239.5,424C 241,424.5 242.5,425 244,425.5C 245.396,424.606 246.896,423.939 248.5,423.5C 249.647,423.818 250.481,424.484 251,425.5C 252.799,425.279 254.632,424.946 256.5,424.5C 259.109,425.23 261.776,425.73 264.5,426C 263.304,426.654 263.304,427.154 264.5,427.5C 265.425,426.359 266.259,426.359 267,427.5C 267.388,426.572 268.055,425.905 269,425.5C 270.721,426.895 272.721,427.561 275,427.5C 279.137,426.763 283.303,426.429 287.5,426.5C 287.539,424.641 286.706,423.308 285,422.5C 283.186,423.76 281.353,423.76 279.5,422.5C 287.391,420.528 295.391,419.194 303.5,418.5C 302.145,417.325 302.312,416.325 304,415.5C 306.106,417.291 308.606,417.958 311.5,417.5C 311.351,416.448 311.517,415.448 312,414.5C 312.654,415.696 313.154,415.696 313.5,414.5C 312.484,411.866 312.484,409.2 313.5,406.5C 313.835,395.804 314.502,385.138 315.5,374.5C 317.2,375.016 318.533,376.016 319.5,377.5C 319.154,378.696 318.654,378.696 318,377.5C 317.056,378.263 316.556,379.263 316.5,380.5C 317.757,380.947 318.757,382.281 319.5,384.5C 318.674,385.451 318.508,386.451 319,387.5C 320.049,386.483 321.216,386.316 322.5,387C 323.819,389.285 325.319,391.452 327,393.5C 327.498,390.183 327.665,386.85 327.5,383.5C 330.167,383.5 332.833,383.5 335.5,383.5C 335.5,386.167 335.5,388.833 335.5,391.5C 338.167,391.5 340.833,391.5 343.5,391.5C 343.5,390.5 343.5,389.5 343.5,388.5C 345.787,388.276 347.953,387.609 350,386.5C 353.667,387.833 357.333,387.833 361,386.5C 363.54,387.207 364.707,388.873 364.5,391.5C 365.5,391.5 366.5,391.5 367.5,391.5C 367.351,390.448 367.517,389.448 368,388.5C 369.356,389.38 370.856,389.714 372.5,389.5C 372.095,387.35 371.595,385.35 371,383.5C 373.575,385.564 374.075,388.064 372.5,391C 376.714,391.963 380.214,390.796 383,387.5C 383.273,389.101 383.773,390.601 384.5,392C 384.043,392.414 383.709,392.914 383.5,393.5C 384.262,393.911 385.262,394.077 386.5,394C 385.304,394.654 385.304,395.154 386.5,395.5C 390.004,393.582 393.337,391.416 396.5,389C 395.366,387.984 395.699,387.317 397.5,387C 396.833,386.667 396.167,386.333 395.5,386C 396.624,385.751 397.624,385.251 398.5,384.5C 396.771,383.403 395.104,382.237 393.5,381C 394.056,380.617 394.389,380.117 394.5,379.5C 396.673,376.533 399.006,373.867 401.5,371.5C 408.095,363.402 415.261,355.735 423,348.5C 423.5,333.504 423.667,318.504 423.5,303.5C 423.5,274.167 423.5,244.833 423.5,215.5C 424.495,202.677 424.829,189.677 424.5,176.5C 407.833,176.5 391.167,176.5 374.5,176.5C 374.5,201.833 374.5,227.167 374.5,252.5C 365.167,252.5 355.833,252.5 346.5,252.5C 340.833,252.5 335.167,252.5 329.5,252.5C 342.994,251.669 356.661,251.169 370.5,251C 369.692,250.692 369.025,250.192 368.5,249.5C 369.718,249.891 370.552,249.224 371,247.5C 371.818,244.773 371.652,242.106 370.5,239.5C 370.002,240.603 369.669,241.603 369.5,242.5C 368.585,240.02 367.085,239.353 365,240.5C 363.224,236.275 363.224,231.942 365,227.5C 365.219,228.938 365.719,230.271 366.5,231.5C 367.214,228.973 367.88,226.473 368.5,224C 367.527,218.593 367.193,213.093 367.5,207.5C 364.833,207.5 362.167,207.5 359.5,207.5C 359.5,202.167 359.5,196.833 359.5,191.5C 360.833,191.5 362.167,191.5 363.5,191.5C 363.5,188.833 363.5,186.167 363.5,183.5C 362.5,183.5 361.5,183.5 360.5,183.5C 360.656,179.418 360.156,175.418 359,171.5C 357.647,172.685 356.48,174.019 355.5,175.5C 354.914,175.291 354.414,174.957 354,174.5C 353.184,169.316 353.35,164.316 354.5,159.5C 355.873,159.657 357.207,159.49 358.5,159C 356.796,156.763 355.796,154.263 355.5,151.5C 351.872,150.979 351.706,149.645 355,147.5C 356.925,149.085 359.091,150.252 361.5,151C 359.789,152.133 359.289,153.633 360,155.5C 361.766,153.404 363.099,151.071 364,148.5C 364.278,149.416 364.778,150.082 365.5,150.5C 365.123,152.258 364.456,153.925 363.5,155.5C 373.167,156.833 382.833,156.833 392.5,155.5C 393.919,153.664 395.086,151.664 396,149.5C 400.003,144.331 404.503,139.664 409.5,135.5 Z"/></g>
<g><path style="opacity:1" fill="#d7dde1" d="M 424.5,147.5 C 425.748,148.334 426.415,149.667 426.5,151.5C 426.22,155.821 423.886,157.487 419.5,156.5C 419.891,152.779 421.558,149.779 424.5,147.5 Z"/></g>
<g><path style="opacity:1" fill="#787e81" d="M 172.5,154.5 C 166.25,156.459 159.584,157.126 152.5,156.5C 151.167,156.5 149.833,156.5 148.5,156.5C 156.401,155.805 164.401,155.138 172.5,154.5 Z"/></g>
<g><path style="opacity:1" fill="#999ca0" d="M 198.5,154.5 C 206.984,155.493 215.651,155.826 224.5,155.5C 215.343,156.658 206.009,156.824 196.5,156C 197.044,155.283 197.711,154.783 198.5,154.5 Z"/></g>
<g><path style="opacity:1" fill="#9b9ba0" d="M 253.5,154.5 C 261.984,155.493 270.651,155.826 279.5,155.5C 270.658,156.822 261.658,156.822 252.5,155.5C 252.624,154.893 252.957,154.56 253.5,154.5 Z"/></g>
<g><path style="opacity:1" fill="#101e27" d="M 354.5,159.5 C 353.35,164.316 353.184,169.316 354,174.5C 354.414,174.957 354.914,175.291 355.5,175.5C 356.48,174.019 357.647,172.685 359,171.5C 360.156,175.418 360.656,179.418 360.5,183.5C 361.5,183.5 362.5,183.5 363.5,183.5C 363.5,186.167 363.5,188.833 363.5,191.5C 362.167,191.5 360.833,191.5 359.5,191.5C 359.5,196.833 359.5,202.167 359.5,207.5C 362.167,207.5 364.833,207.5 367.5,207.5C 367.193,213.093 367.527,218.593 368.5,224C 367.88,226.473 367.214,228.973 366.5,231.5C 365.719,230.271 365.219,228.938 365,227.5C 363.224,231.942 363.224,236.275 365,240.5C 367.085,239.353 368.585,240.02 369.5,242.5C 369.669,241.603 370.002,240.603 370.5,239.5C 371.652,242.106 371.818,244.773 371,247.5C 370.552,249.224 369.718,249.891 368.5,249.5C 369.025,250.192 369.692,250.692 370.5,251C 356.661,251.169 342.994,251.669 329.5,252.5C 325.5,252.5 321.5,252.5 317.5,252.5C 317.167,252.5 316.833,252.5 316.5,252.5C 316.418,228.162 316.085,203.829 315.5,179.5C 316.404,178.791 316.737,177.791 316.5,176.5C 314.833,176.5 313.167,176.5 311.5,176.5C 299.829,176.333 288.162,176.5 276.5,177C 274.97,179.352 273.303,181.519 271.5,183.5C 271.259,181.114 271.925,179.114 273.5,177.5C 279.986,171.719 287.32,169.553 295.5,171C 294.027,171.71 293.36,172.876 293.5,174.5C 296.518,174.665 299.518,174.498 302.5,174C 303.891,172.35 305.391,171.85 307,172.5C 309.147,171.887 311.314,171.221 313.5,170.5C 312.975,169.808 312.308,169.308 311.5,169C 313.044,168.71 314.377,168.044 315.5,167C 313.335,165.436 311.668,165.603 310.5,167.5C 308.057,165.945 305.39,165.278 302.5,165.5C 301.769,163.401 301.769,161.401 302.5,159.5C 307.302,161.177 311.969,162.177 316.5,162.5C 319.698,161.832 320.031,160.832 317.5,159.5C 317.611,158.883 317.944,158.383 318.5,158C 323.167,157.333 327.833,157.333 332.5,158C 331.5,158.333 330.5,158.667 329.5,159C 330.956,159.423 331.456,160.256 331,161.5C 322.618,159.414 322.118,161.748 329.5,168.5C 333.351,169.345 335.351,171.678 335.5,175.5C 340.833,175.5 346.167,175.5 351.5,175.5C 352.081,170.025 351.414,164.858 349.5,160C 350.428,159.612 351.095,158.945 351.5,158C 350.709,156.899 350.709,156.066 351.5,155.5C 354.351,155.963 355.351,157.296 354.5,159.5 Z"/></g>
<g><path style="opacity:1" fill="#2881a3" d="M 181.5,177.5 C 169.12,176.854 157.12,177.521 145.5,179.5C 144.596,178.791 144.263,177.791 144.5,176.5C 157.011,176.171 169.345,176.505 181.5,177.5 Z"/></g>
<g><path style="opacity:1" fill="#71d2f0" d="M 311.5,176.5 C 313.167,176.5 314.833,176.5 316.5,176.5C 316.737,177.791 316.404,178.791 315.5,179.5C 312.561,184.829 310.061,190.495 308,196.5C 305.257,199.654 302.757,202.988 300.5,206.5C 298.408,208.605 296.075,210.272 293.5,211.5C 292.67,201.008 292.17,190.341 292,179.5C 291.5,179 291,178.5 290.5,178C 297.679,177.829 304.679,177.329 311.5,176.5 Z"/></g>
<g><path style="opacity:1" fill="#49555d" d="M 423.5,215.5 C 423.5,203.5 423.5,191.5 423.5,179.5C 415.567,177.532 407.234,176.865 398.5,177.5C 390.833,177.5 383.167,177.5 375.5,177.5C 375.831,202.672 375.498,227.672 374.5,252.5C 374.5,227.167 374.5,201.833 374.5,176.5C 391.167,176.5 407.833,176.5 424.5,176.5C 424.829,189.677 424.495,202.677 423.5,215.5 Z"/></g>
<g><path style="opacity:1" fill="#bcc5cc" d="M 398.5,177.5 C 407.234,176.865 415.567,177.532 423.5,179.5C 418.189,188.776 412.356,197.776 406,206.5C 404.167,208.167 402.333,209.833 400.5,211.5C 399.719,210.271 399.219,208.938 399,207.5C 398.5,197.506 398.334,187.506 398.5,177.5 Z"/></g>
<g><path style="opacity:1" fill="#32cffb" d="M 181.5,177.5 C 185.767,185.716 190.767,193.382 196.5,200.5C 197.774,203.76 199.44,206.76 201.5,209.5C 210.194,223.851 218.86,238.184 227.5,252.5C 226.206,251.71 225.039,250.71 224,249.5C 223.667,249.833 223.333,250.167 223,250.5C 222.506,248.866 222.34,247.199 222.5,245.5C 217.718,246.546 215.884,244.879 217,240.5C 215.989,239.663 214.822,239.33 213.5,239.5C 213.5,240.833 213.5,242.167 213.5,243.5C 212.325,243.719 211.325,243.386 210.5,242.5C 209.833,240.5 209.167,238.5 208.5,236.5C 206.128,235.653 204.128,234.319 202.5,232.5C 200.955,231.548 199.288,231.215 197.5,231.5C 198.776,225.884 196.776,222.051 191.5,220C 191.957,219.586 192.291,219.086 192.5,218.5C 191.846,216.885 191.346,215.218 191,213.5C 189.559,214.26 188.059,214.926 186.5,215.5C 185.43,218.876 184.264,222.21 183,225.5C 182.71,223.956 182.044,222.623 181,221.5C 178.028,223.448 176.028,226.114 175,229.5C 174.026,227.122 173.359,227.456 173,230.5C 172.617,229.944 172.117,229.611 171.5,229.5C 170.272,220.048 166.605,211.715 160.5,204.5C 156.324,195.661 151.324,187.327 145.5,179.5C 157.12,177.521 169.12,176.854 181.5,177.5 Z"/></g>
<g><path style="opacity:1" fill="#697984" d="M 315.5,179.5 C 316.085,203.829 316.418,228.162 316.5,252.5C 315.669,240.34 315.169,228.007 315,215.5C 314.08,212.899 313.413,210.232 313,207.5C 312,209.5 311,211.5 310,213.5C 308.887,214.711 307.72,214.711 306.5,213.5C 305.261,215.007 305.595,216.174 307.5,217C 306.24,218.113 305.073,218.28 304,217.5C 303.676,219.569 302.842,219.902 301.5,218.5C 298.417,221.242 295.751,224.242 293.5,227.5C 292.833,223.5 292.167,219.5 291.5,215.5C 292.6,214.395 293.267,213.062 293.5,211.5C 296.075,210.272 298.408,208.605 300.5,206.5C 302.757,202.988 305.257,199.654 308,196.5C 310.061,190.495 312.561,184.829 315.5,179.5 Z"/></g>
<g><path style="opacity:1" fill="#8d979e" d="M 398.5,177.5 C 398.334,187.506 398.5,197.506 399,207.5C 399.219,208.938 399.719,210.271 400.5,211.5C 402.333,209.833 404.167,208.167 406,206.5C 412.356,197.776 418.189,188.776 423.5,179.5C 423.5,191.5 423.5,203.5 423.5,215.5C 422.833,223.343 422.167,231.343 421.5,239.5C 417.482,244.352 412.982,248.685 408,252.5C 405.749,256.589 402.915,260.255 399.5,263.5C 398.52,266.086 398.187,268.753 398.5,271.5C 396.858,273.081 394.858,273.747 392.5,273.5C 392.5,272.5 392.5,271.5 392.5,270.5C 396.236,270.34 396.236,269.507 392.5,268C 393.471,266.796 394.471,266.296 395.5,266.5C 394.15,264.98 392.817,264.313 391.5,264.5C 392.167,263.833 392.833,263.167 393.5,262.5C 389.52,262.092 385.686,262.092 382,262.5C 378.64,260.64 376.14,257.973 374.5,254.5C 365.009,253.833 355.675,253.167 346.5,252.5C 355.833,252.5 365.167,252.5 374.5,252.5C 375.498,227.672 375.831,202.672 375.5,177.5C 383.167,177.5 390.833,177.5 398.5,177.5 Z"/></g>
<g><path style="opacity:1" fill="#32b5e7" d="M 311.5,176.5 C 304.679,177.329 297.679,177.829 290.5,178C 291,178.5 291.5,179 292,179.5C 292.17,190.341 292.67,201.008 293.5,211.5C 293.267,213.062 292.6,214.395 291.5,215.5C 286.589,224.321 281.922,233.321 277.5,242.5C 273.295,245.075 271.295,248.909 271.5,254C 271.164,255.03 270.497,255.53 269.5,255.5C 270.111,250.335 270.777,245.168 271.5,240C 270.378,232.17 270.378,224.337 271.5,216.5C 271.827,206.652 271.494,196.986 270.5,187.5C 270.833,186.167 271.167,184.833 271.5,183.5C 273.303,181.519 274.97,179.352 276.5,177C 288.162,176.5 299.829,176.333 311.5,176.5 Z"/></g>
<g><path style="opacity:1" fill="#2bc9fb" d="M 227.5,252.5 C 227.783,253.289 228.283,253.956 229,254.5C 231.857,250.102 234.691,245.768 237.5,241.5C 244.21,238.286 247.543,233.119 247.5,226C 248.167,225.333 248.833,225.333 249.5,226C 250.211,227.255 251.044,228.421 252,229.5C 252.054,226.139 253.054,223.139 255,220.5C 254.613,222.774 254.446,224.941 254.5,227C 255.824,228.872 257.324,229.705 259,229.5C 259.667,231.5 259.667,233.5 259,235.5C 257.989,236.337 256.822,236.67 255.5,236.5C 255.281,237.675 255.614,238.675 256.5,239.5C 257.451,238.674 258.451,238.508 259.5,239C 257.478,243.546 255.311,248.046 253,252.5C 248.012,254.406 243.845,257.406 240.5,261.5C 241.859,263.306 241.525,264.806 239.5,266C 242.164,267.91 243.83,267.077 244.5,263.5C 249.553,259.434 254.553,255.434 259.5,251.5C 259.769,253.429 259.269,255.095 258,256.5C 257.586,256.043 257.086,255.709 256.5,255.5C 251.261,260.241 246.261,265.075 241.5,270C 239.649,270.837 237.816,271.671 236,272.5C 235.75,275.754 234.75,278.754 233,281.5C 232.667,281.167 232.333,280.833 232,280.5C 231.399,282.137 230.899,283.803 230.5,285.5C 231.767,287.944 233.267,290.277 235,292.5C 238.017,294.021 239.85,293.021 240.5,289.5C 240.833,290 241.167,290.5 241.5,291C 240.717,292.95 239.717,294.783 238.5,296.5C 238.556,297.737 239.056,298.737 240,299.5C 241.873,296.713 243.706,294.046 245.5,291.5C 246.822,291.67 247.989,291.337 249,290.5C 251.44,286.066 253.94,281.732 256.5,277.5C 257.5,277.5 258.5,277.5 259.5,277.5C 255.102,285.954 249.935,293.954 244,301.5C 242.214,304.736 240.714,308.07 239.5,311.5C 236.35,315.119 233.684,319.119 231.5,323.5C 230.167,323.5 228.833,323.5 227.5,323.5C 225.842,320.969 224.842,318.136 224.5,315C 225.956,310.98 226.622,306.813 226.5,302.5C 227.759,293.975 227.759,285.308 226.5,276.5C 223.206,276.741 220.206,275.908 217.5,274C 215.621,270.112 212.955,266.779 209.5,264C 202.192,258.69 195.192,253.023 188.5,247C 185.89,245.519 183.223,244.352 180.5,243.5C 179.466,241.447 177.966,239.78 176,238.5C 173.953,235.834 172.453,232.834 171.5,229.5C 172.117,229.611 172.617,229.944 173,230.5C 173.359,227.456 174.026,227.122 175,229.5C 176.028,226.114 178.028,223.448 181,221.5C 182.044,222.623 182.71,223.956 183,225.5C 184.264,222.21 185.43,218.876 186.5,215.5C 188.059,214.926 189.559,214.26 191,213.5C 191.346,215.218 191.846,216.885 192.5,218.5C 192.291,219.086 191.957,219.586 191.5,220C 196.776,222.051 198.776,225.884 197.5,231.5C 199.288,231.215 200.955,231.548 202.5,232.5C 204.128,234.319 206.128,235.653 208.5,236.5C 209.167,238.5 209.833,240.5 210.5,242.5C 211.325,243.386 212.325,243.719 213.5,243.5C 213.5,242.167 213.5,240.833 213.5,239.5C 214.822,239.33 215.989,239.663 217,240.5C 215.884,244.879 217.718,246.546 222.5,245.5C 222.34,247.199 222.506,248.866 223,250.5C 223.333,250.167 223.667,249.833 224,249.5C 225.039,250.71 226.206,251.71 227.5,252.5 Z"/></g>
<g><path style="opacity:1" fill="#2bcffb" d="M 270.5,187.5 C 271.494,196.986 271.827,206.652 271.5,216.5C 269.203,217.739 268.87,219.572 270.5,222C 269.709,230.465 269.209,238.965 269,247.5C 268,248.833 267,248.833 266,247.5C 264.115,249.295 261.948,250.628 259.5,251.5C 254.553,255.434 249.553,259.434 244.5,263.5C 243.83,267.077 242.164,267.91 239.5,266C 241.525,264.806 241.859,263.306 240.5,261.5C 243.845,257.406 248.012,254.406 253,252.5C 255.311,248.046 257.478,243.546 259.5,239C 258.451,238.508 257.451,238.674 256.5,239.5C 255.614,238.675 255.281,237.675 255.5,236.5C 256.822,236.67 257.989,236.337 259,235.5C 259.667,233.5 259.667,231.5 259,229.5C 257.324,229.705 255.824,228.872 254.5,227C 254.446,224.941 254.613,222.774 255,220.5C 253.054,223.139 252.054,226.139 252,229.5C 251.044,228.421 250.211,227.255 249.5,226C 248.833,225.333 248.167,225.333 247.5,226C 247.543,233.119 244.21,238.286 237.5,241.5C 248.001,223.158 259.001,205.158 270.5,187.5 Z"/></g>
<g><path style="opacity:1" fill="#0c94c9" d="M 160.5,204.5 C 166.605,211.715 170.272,220.048 171.5,229.5C 172.453,232.834 173.953,235.834 176,238.5C 177.966,239.78 179.466,241.447 180.5,243.5C 184.221,249.912 187.555,256.579 190.5,263.5C 189.022,263.762 187.689,263.429 186.5,262.5C 183.225,259.501 179.892,256.501 176.5,253.5C 175.914,253.709 175.414,254.043 175,254.5C 174.43,251.156 173.264,250.823 171.5,253.5C 170.571,252.311 170.238,250.978 170.5,249.5C 169.5,249.5 168.5,249.5 167.5,249.5C 168.581,242.524 169.081,235.524 169,228.5C 166.396,220.404 163.562,212.404 160.5,204.5 Z"/></g>
<g><path style="opacity:1" fill="#959ea3" d="M 316.5,252.5 C 316.833,252.5 317.167,252.5 317.5,252.5C 316.697,253.423 316.53,254.423 317,255.5C 319.719,254.556 322.552,254.223 325.5,254.5C 325.817,257.572 325.484,260.572 324.5,263.5C 323.106,265.725 321.94,268.058 321,270.5C 315.097,271.111 309.263,272.278 303.5,274C 304.167,274.333 304.833,274.667 305.5,275C 334.173,275.657 362.84,275.49 391.5,274.5C 391.158,275.338 390.492,275.672 389.5,275.5C 375.177,276.178 360.843,276.511 346.5,276.5C 330.138,276.773 313.805,276.44 297.5,275.5C 296.081,274.549 294.415,274.216 292.5,274.5C 292.5,272.167 292.5,269.833 292.5,267.5C 293.214,254.179 293.547,240.845 293.5,227.5C 295.751,224.242 298.417,221.242 301.5,218.5C 302.842,219.902 303.676,219.569 304,217.5C 305.073,218.28 306.24,218.113 307.5,217C 305.595,216.174 305.261,215.007 306.5,213.5C 307.72,214.711 308.887,214.711 310,213.5C 311,211.5 312,209.5 313,207.5C 313.413,210.232 314.08,212.899 315,215.5C 315.169,228.007 315.669,240.34 316.5,252.5 Z"/></g>
<g><path style="opacity:1" fill="#20bff5" d="M 271.5,216.5 C 270.378,224.337 270.378,232.17 271.5,240C 270.777,245.168 270.111,250.335 269.5,255.5C 268.559,261.629 266.559,267.296 263.5,272.5C 262.407,274.349 261.074,276.016 259.5,277.5C 258.5,277.5 257.5,277.5 256.5,277.5C 253.94,281.732 251.44,286.066 249,290.5C 247.989,291.337 246.822,291.67 245.5,291.5C 243.706,294.046 241.873,296.713 240,299.5C 239.056,298.737 238.556,297.737 238.5,296.5C 239.717,294.783 240.717,292.95 241.5,291C 241.167,290.5 240.833,290 240.5,289.5C 239.85,293.021 238.017,294.021 235,292.5C 233.267,290.277 231.767,287.944 230.5,285.5C 230.899,283.803 231.399,282.137 232,280.5C 232.333,280.833 232.667,281.167 233,281.5C 234.75,278.754 235.75,275.754 236,272.5C 237.816,271.671 239.649,270.837 241.5,270C 246.261,265.075 251.261,260.241 256.5,255.5C 257.086,255.709 257.586,256.043 258,256.5C 259.269,255.095 259.769,253.429 259.5,251.5C 261.948,250.628 264.115,249.295 266,247.5C 267,248.833 268,248.833 269,247.5C 269.209,238.965 269.709,230.465 270.5,222C 268.87,219.572 269.203,217.739 271.5,216.5 Z"/></g>
<g><path style="opacity:1" fill="#a9b2b7" d="M 317.5,252.5 C 321.5,252.5 325.5,252.5 329.5,252.5C 335.167,252.5 340.833,252.5 346.5,252.5C 355.675,253.167 365.009,253.833 374.5,254.5C 376.14,257.973 378.64,260.64 382,262.5C 385.686,262.092 389.52,262.092 393.5,262.5C 392.833,263.167 392.167,263.833 391.5,264.5C 392.817,264.313 394.15,264.98 395.5,266.5C 394.471,266.296 393.471,266.796 392.5,268C 396.236,269.507 396.236,270.34 392.5,270.5C 392.5,271.5 392.5,272.5 392.5,273.5C 392.5,274.167 392.167,274.5 391.5,274.5C 362.84,275.49 334.173,275.657 305.5,275C 304.833,274.667 304.167,274.333 303.5,274C 309.263,272.278 315.097,271.111 321,270.5C 321.94,268.058 323.106,265.725 324.5,263.5C 325.484,260.572 325.817,257.572 325.5,254.5C 322.552,254.223 319.719,254.556 317,255.5C 316.53,254.423 316.697,253.423 317.5,252.5 Z"/></g>
<g><path style="opacity:1" fill="#1db2e6" d="M 180.5,243.5 C 183.223,244.352 185.89,245.519 188.5,247C 195.192,253.023 202.192,258.69 209.5,264C 212.955,266.779 215.621,270.112 217.5,274C 220.206,275.908 223.206,276.741 226.5,276.5C 227.759,285.308 227.759,293.975 226.5,302.5C 226.666,295.492 226.5,288.492 226,281.5C 221.445,278.958 216.779,278.958 212,281.5C 206.16,276.839 203.993,278.173 205.5,285.5C 205.043,286.298 204.376,286.631 203.5,286.5C 200.925,283.681 198.592,280.681 196.5,277.5C 196.672,276.508 196.338,275.842 195.5,275.5C 193.831,271.496 192.164,267.496 190.5,263.5C 187.555,256.579 184.221,249.912 180.5,243.5 Z"/></g>
<g><path style="opacity:1" fill="#2a3842" d="M 291.5,215.5 C 292.167,219.5 292.833,223.5 293.5,227.5C 293.547,240.845 293.214,254.179 292.5,267.5C 291.503,284.659 291.17,301.992 291.5,319.5C 289.713,315.586 288.546,311.253 288,306.5C 282.75,301.194 277.583,301.194 272.5,306.5C 271.481,305.313 270.314,304.313 269,303.5C 268.5,321.83 268.333,340.164 268.5,358.5C 268.167,358.5 267.833,358.5 267.5,358.5C 266.269,332.5 266.269,306.5 267.5,280.5C 267.167,277.5 266.833,274.5 266.5,271.5C 265.583,272.127 264.583,272.461 263.5,272.5C 266.559,267.296 268.559,261.629 269.5,255.5C 270.497,255.53 271.164,255.03 271.5,254C 271.295,248.909 273.295,245.075 277.5,242.5C 281.922,233.321 286.589,224.321 291.5,215.5 Z"/></g>
<g><path style="opacity:1" fill="#6f7b81" d="M 423.5,215.5 C 423.5,244.833 423.5,274.167 423.5,303.5C 422.887,310.398 422.053,317.398 421,324.5C 420.683,322.699 420.016,322.366 419,323.5C 418.667,321.5 418.333,319.5 418,317.5C 417.667,317.833 417.333,318.167 417,318.5C 416.626,317.584 416.126,316.75 415.5,316C 412.574,315.782 409.74,315.282 407,314.5C 405.984,315.634 405.317,315.301 405,313.5C 404.667,314.167 404.333,314.833 404,315.5C 403.259,314.359 402.425,314.359 401.5,315.5C 400.818,314.757 400.151,314.091 399.5,313.5C 399.829,299.323 399.496,285.323 398.5,271.5C 398.187,268.753 398.52,266.086 399.5,263.5C 402.915,260.255 405.749,256.589 408,252.5C 412.982,248.685 417.482,244.352 421.5,239.5C 422.167,231.343 422.833,223.343 423.5,215.5 Z"/></g>
<g><path style="opacity:1" fill="#495a65" d="M 389.5,275.5 C 384.52,281.992 379.687,288.659 375,295.5C 373.629,297.041 372.129,298.375 370.5,299.5C 364.158,299.666 357.825,299.5 351.5,299C 352.328,298.085 353.328,297.419 354.5,297C 353.782,295.013 352.782,293.179 351.5,291.5C 350.355,284.978 353.022,280.478 359.5,278C 354.981,277.825 350.647,277.325 346.5,276.5C 360.843,276.511 375.177,276.178 389.5,275.5 Z"/></g>
<g><path style="opacity:1" fill="#394750" d="M 297.5,275.5 C 313.805,276.44 330.138,276.773 346.5,276.5C 350.647,277.325 354.981,277.825 359.5,278C 353.022,280.478 350.355,284.978 351.5,291.5C 352.782,293.179 353.782,295.013 354.5,297C 353.328,297.419 352.328,298.085 351.5,299C 357.825,299.5 364.158,299.666 370.5,299.5C 370.5,299.833 370.5,300.167 370.5,300.5C 351.47,299.846 332.803,300.513 314.5,302.5C 308.615,294.438 302.115,286.771 295,279.5C 292.728,276.511 293.561,275.178 297.5,275.5 Z"/></g>
<g><path style="opacity:1" fill="#0c7eb0" d="M 145.5,179.5 C 151.324,187.327 156.324,195.661 160.5,204.5C 163.562,212.404 166.396,220.404 169,228.5C 169.081,235.524 168.581,242.524 167.5,249.5C 168.5,249.5 169.5,249.5 170.5,249.5C 170.238,250.978 170.571,252.311 171.5,253.5C 173.264,250.823 174.43,251.156 175,254.5C 175.414,254.043 175.914,253.709 176.5,253.5C 179.892,256.501 183.225,259.501 186.5,262.5C 187.689,263.429 189.022,263.762 190.5,263.5C 192.164,267.496 193.831,271.496 195.5,275.5C 194.603,274.402 193.77,274.402 193,275.5C 192.5,290.163 192.333,304.83 192.5,319.5C 191.105,328.632 190.272,337.966 190,347.5C 188.493,343.302 187.493,338.968 187,334.5C 185.989,333.663 184.822,333.33 183.5,333.5C 183.5,332.5 183.5,331.5 183.5,330.5C 182.127,330.657 180.793,330.49 179.5,330C 180.964,328.136 181.964,325.969 182.5,323.5C 185.066,326.011 186.732,325.345 187.5,321.5C 187.101,319.803 186.601,318.137 186,316.5C 185.002,319.028 184.169,319.028 183.5,316.5C 184.396,314.199 184.562,311.866 184,309.5C 182.019,311.359 181.019,313.692 181,316.5C 179.883,315.051 179.216,313.384 179,311.5C 178.667,311.833 178.333,312.167 178,312.5C 177.231,309.901 177.398,307.401 178.5,305C 176.502,302.518 175.168,299.685 174.5,296.5C 173.719,297.729 173.219,299.062 173,300.5C 172.667,297.833 172.333,295.167 172,292.5C 171.469,298.171 170.969,303.838 170.5,309.5C 169.691,307.708 169.191,305.708 169,303.5C 168.581,304.672 167.915,305.672 167,306.5C 166.333,304.5 165,303.167 163,302.5C 162.51,301.207 162.343,299.873 162.5,298.5C 159.412,298.361 156.745,297.361 154.5,295.5C 154.297,293.61 154.963,292.11 156.5,291C 154.527,290.505 152.527,290.338 150.5,290.5C 150.657,291.873 150.49,293.207 150,294.5C 149.259,295.641 148.425,295.641 147.5,294.5C 146.824,295.602 146.158,296.602 145.5,297.5C 145.5,259.5 145.5,221.5 145.5,183.5C 145.5,182.167 145.5,180.833 145.5,179.5 Z"/></g>
<g><path style="opacity:1" fill="#072b3d" d="M 263.5,272.5 C 261.341,278.004 259.674,283.671 258.5,289.5C 257.264,288.754 255.93,288.421 254.5,288.5C 254.815,290.226 254.981,291.893 255,293.5C 253.434,292.939 252.101,293.606 251,295.5C 249.756,298.982 247.756,301.982 245,304.5C 244.805,308.188 242.971,310.522 239.5,311.5C 240.714,308.07 242.214,304.736 244,301.5C 249.935,293.954 255.102,285.954 259.5,277.5C 261.074,276.016 262.407,274.349 263.5,272.5 Z"/></g>
<g><path style="opacity:1" fill="#101e26" d="M 267.5,358.5 C 267.333,373.837 267.5,389.17 268,404.5C 274.693,406.347 281.526,406.847 288.5,406C 289.329,404.184 290.163,402.351 291,400.5C 291.383,401.056 291.883,401.389 292.5,401.5C 292.286,403.144 292.62,404.644 293.5,406C 300.158,406.5 306.825,406.666 313.5,406.5C 312.484,409.2 312.484,411.866 313.5,414.5C 313.154,415.696 312.654,415.696 312,414.5C 311.517,415.448 311.351,416.448 311.5,417.5C 308.606,417.958 306.106,417.291 304,415.5C 302.312,416.325 302.145,417.325 303.5,418.5C 295.391,419.194 287.391,420.528 279.5,422.5C 281.353,423.76 283.186,423.76 285,422.5C 286.706,423.308 287.539,424.641 287.5,426.5C 283.303,426.429 279.137,426.763 275,427.5C 272.721,427.561 270.721,426.895 269,425.5C 268.055,425.905 267.388,426.572 267,427.5C 266.259,426.359 265.425,426.359 264.5,427.5C 263.304,427.154 263.304,426.654 264.5,426C 261.776,425.73 259.109,425.23 256.5,424.5C 254.632,424.946 252.799,425.279 251,425.5C 250.481,424.484 249.647,423.818 248.5,423.5C 246.896,423.939 245.396,424.606 244,425.5C 242.5,425 241,424.5 239.5,424C 240.34,422.334 239.84,422.167 238,423.5C 236.061,421.764 233.728,420.764 231,420.5C 230.228,420.645 229.561,420.978 229,421.5C 227.924,417.894 225.757,416.894 222.5,418.5C 221.032,416.667 219.365,416.334 217.5,417.5C 218.243,418.182 218.909,418.849 219.5,419.5C 183.73,406.712 155.73,384.379 135.5,352.5C 135.16,350.321 134.16,348.488 132.5,347C 136.86,346.341 140.693,347.508 144,350.5C 144.333,350.167 144.667,349.833 145,349.5C 149.626,353.615 154.459,357.615 159.5,361.5C 162.564,364.57 165.897,367.237 169.5,369.5C 176.505,376.832 184.172,383.499 192.5,389.5C 193.333,352.336 193.833,315.002 194,277.5C 194.77,276.402 195.603,276.402 196.5,277.5C 198.592,280.681 200.925,283.681 203.5,286.5C 211.804,299.968 220.304,313.301 229,326.5C 230.31,325.87 231.144,324.87 231.5,323.5C 233.684,319.119 236.35,315.119 239.5,311.5C 242.971,310.522 244.805,308.188 245,304.5C 247.756,301.982 249.756,298.982 251,295.5C 252.101,293.606 253.434,292.939 255,293.5C 254.981,291.893 254.815,290.226 254.5,288.5C 255.93,288.421 257.264,288.754 258.5,289.5C 259.674,283.671 261.341,278.004 263.5,272.5C 264.583,272.461 265.583,272.127 266.5,271.5C 266.833,274.5 267.167,277.5 267.5,280.5C 266.269,306.5 266.269,332.5 267.5,358.5 Z"/></g>
<g><path style="opacity:1" fill="#1ba4db" d="M 226.5,302.5 C 226.622,306.813 225.956,310.98 224.5,315C 224.842,318.136 225.842,320.969 227.5,323.5C 228.833,323.5 230.167,323.5 231.5,323.5C 231.144,324.87 230.31,325.87 229,326.5C 220.304,313.301 211.804,299.968 203.5,286.5C 204.376,286.631 205.043,286.298 205.5,285.5C 203.993,278.173 206.16,276.839 212,281.5C 216.779,278.958 221.445,278.958 226,281.5C 226.5,288.492 226.666,295.492 226.5,302.5 Z"/></g>
<g><path style="opacity:1" fill="#101f28" d="M 370.5,300.5 C 372.167,300.5 373.833,300.5 375.5,300.5C 375.333,329.835 375.5,359.169 376,388.5C 376.414,388.957 376.914,389.291 377.5,389.5C 383.247,386.039 388.913,382.706 394.5,379.5C 394.389,380.117 394.056,380.617 393.5,381C 395.104,382.237 396.771,383.403 398.5,384.5C 397.624,385.251 396.624,385.751 395.5,386C 396.167,386.333 396.833,386.667 397.5,387C 395.699,387.317 395.366,387.984 396.5,389C 393.337,391.416 390.004,393.582 386.5,395.5C 385.304,395.154 385.304,394.654 386.5,394C 385.262,394.077 384.262,393.911 383.5,393.5C 383.709,392.914 384.043,392.414 384.5,392C 383.773,390.601 383.273,389.101 383,387.5C 380.214,390.796 376.714,391.963 372.5,391C 374.075,388.064 373.575,385.564 371,383.5C 371.595,385.35 372.095,387.35 372.5,389.5C 370.856,389.714 369.356,389.38 368,388.5C 367.517,389.448 367.351,390.448 367.5,391.5C 366.5,391.5 365.5,391.5 364.5,391.5C 364.707,388.873 363.54,387.207 361,386.5C 357.333,387.833 353.667,387.833 350,386.5C 347.953,387.609 345.787,388.276 343.5,388.5C 343.5,389.5 343.5,390.5 343.5,391.5C 340.833,391.5 338.167,391.5 335.5,391.5C 335.5,388.833 335.5,386.167 335.5,383.5C 332.833,383.5 330.167,383.5 327.5,383.5C 327.665,386.85 327.498,390.183 327,393.5C 325.319,391.452 323.819,389.285 322.5,387C 321.216,386.316 320.049,386.483 319,387.5C 318.508,386.451 318.674,385.451 319.5,384.5C 318.757,382.281 317.757,380.947 316.5,380.5C 316.556,379.263 317.056,378.263 318,377.5C 318.654,378.696 319.154,378.696 319.5,377.5C 318.533,376.016 317.2,375.016 315.5,374.5C 315.5,366.833 315.5,359.167 315.5,351.5C 316.426,335.253 316.092,318.92 314.5,302.5C 332.803,300.513 351.47,299.846 370.5,300.5 Z"/></g>
<g><path style="opacity:1" fill="#294557" d="M 291.5,319.5 C 291.5,322.167 291.5,324.833 291.5,327.5C 290.586,345.666 289.919,363.999 289.5,382.5C 286.669,384.067 284.335,383.401 282.5,380.5C 281.833,380.833 281.167,381.167 280.5,381.5C 278.043,377.958 274.877,376.958 271,378.5C 270.641,375.456 269.974,375.122 269,377.5C 268.5,371.175 268.334,364.842 268.5,358.5C 268.333,340.164 268.5,321.83 269,303.5C 270.314,304.313 271.481,305.313 272.5,306.5C 277.583,301.194 282.75,301.194 288,306.5C 288.546,311.253 289.713,315.586 291.5,319.5 Z"/></g>
<g><path style="opacity:1" fill="#65727b" d="M 292.5,267.5 C 292.5,269.833 292.5,272.167 292.5,274.5C 294.415,274.216 296.081,274.549 297.5,275.5C 293.561,275.178 292.728,276.511 295,279.5C 302.115,286.771 308.615,294.438 314.5,302.5C 316.092,318.92 316.426,335.253 315.5,351.5C 314.521,354.625 314.187,357.958 314.5,361.5C 310.003,362.055 305.836,361.389 302,359.5C 300.856,361.917 299.19,362.584 297,361.5C 296.252,363.332 295.252,364.999 294,366.5C 293.79,364.942 293.29,363.609 292.5,362.5C 291.564,350.871 291.23,339.204 291.5,327.5C 291.5,324.833 291.5,322.167 291.5,319.5C 291.17,301.992 291.503,284.659 292.5,267.5 Z"/></g>
<g><path style="opacity:1" fill="#606a71" d="M 423.5,303.5 C 423.667,318.504 423.5,333.504 423,348.5C 415.261,355.735 408.095,363.402 401.5,371.5C 400.883,371.611 400.383,371.944 400,372.5C 399.5,352.836 399.333,333.169 399.5,313.5C 400.151,314.091 400.818,314.757 401.5,315.5C 402.425,314.359 403.259,314.359 404,315.5C 404.333,314.833 404.667,314.167 405,313.5C 405.317,315.301 405.984,315.634 407,314.5C 409.74,315.282 412.574,315.782 415.5,316C 416.126,316.75 416.626,317.584 417,318.5C 417.333,318.167 417.667,317.833 418,317.5C 418.333,319.5 418.667,321.5 419,323.5C 420.016,322.366 420.683,322.699 421,324.5C 422.053,317.398 422.887,310.398 423.5,303.5 Z"/></g>
<g><path style="opacity:1" fill="#083e60" d="M 195.5,275.5 C 196.338,275.842 196.672,276.508 196.5,277.5C 195.603,276.402 194.77,276.402 194,277.5C 193.833,315.002 193.333,352.336 192.5,389.5C 192.5,366.167 192.5,342.833 192.5,319.5C 192.333,304.83 192.5,290.163 193,275.5C 193.77,274.402 194.603,274.402 195.5,275.5 Z"/></g>
<g><path style="opacity:1" fill="#06628e" d="M 170.5,309.5 C 170.829,324.01 170.496,338.343 169.5,352.5C 169.814,347.817 169.148,343.317 167.5,339C 168.451,338.282 168.617,337.449 168,336.5C 165.113,338.435 163.613,340.768 163.5,343.5C 162.205,340.988 161.539,338.321 161.5,335.5C 160.167,335.5 158.833,335.5 157.5,335.5C 158.675,339.15 158.675,342.817 157.5,346.5C 152.044,346.974 148.544,344.641 147,339.5C 146.051,325.514 145.551,311.514 145.5,297.5C 146.158,296.602 146.824,295.602 147.5,294.5C 148.425,295.641 149.259,295.641 150,294.5C 150.49,293.207 150.657,291.873 150.5,290.5C 152.527,290.338 154.527,290.505 156.5,291C 154.963,292.11 154.297,293.61 154.5,295.5C 156.745,297.361 159.412,298.361 162.5,298.5C 162.343,299.873 162.51,301.207 163,302.5C 165,303.167 166.333,304.5 167,306.5C 167.915,305.672 168.581,304.672 169,303.5C 169.191,305.708 169.691,307.708 170.5,309.5 Z"/></g>
<g><path style="opacity:1" fill="#0d5379" d="M 145.5,183.5 C 145.5,221.5 145.5,259.5 145.5,297.5C 145.551,311.514 146.051,325.514 147,339.5C 148.544,344.641 152.044,346.974 157.5,346.5C 158.675,342.817 158.675,339.15 157.5,335.5C 158.833,335.5 160.167,335.5 161.5,335.5C 161.539,338.321 162.205,340.988 163.5,343.5C 163.613,340.768 165.113,338.435 168,336.5C 168.617,337.449 168.451,338.282 167.5,339C 169.148,343.317 169.814,347.817 169.5,352.5C 169.5,358.167 169.5,363.833 169.5,369.5C 165.897,367.237 162.564,364.57 159.5,361.5C 155.605,355.265 150.939,349.598 145.5,344.5C 144.169,290.668 144.169,237.002 145.5,183.5 Z"/></g>
<g><path style="opacity:1" fill="#0e79a3" d="M 192.5,319.5 C 192.5,342.833 192.5,366.167 192.5,389.5C 184.172,383.499 176.505,376.832 169.5,369.5C 169.5,363.833 169.5,358.167 169.5,352.5C 170.496,338.343 170.829,324.01 170.5,309.5C 170.969,303.838 171.469,298.171 172,292.5C 172.333,295.167 172.667,297.833 173,300.5C 173.219,299.062 173.719,297.729 174.5,296.5C 175.168,299.685 176.502,302.518 178.5,305C 177.398,307.401 177.231,309.901 178,312.5C 178.333,312.167 178.667,311.833 179,311.5C 179.216,313.384 179.883,315.051 181,316.5C 181.019,313.692 182.019,311.359 184,309.5C 184.562,311.866 184.396,314.199 183.5,316.5C 184.169,319.028 185.002,319.028 186,316.5C 186.601,318.137 187.101,319.803 187.5,321.5C 186.732,325.345 185.066,326.011 182.5,323.5C 181.964,325.969 180.964,328.136 179.5,330C 180.793,330.49 182.127,330.657 183.5,330.5C 183.5,331.5 183.5,332.5 183.5,333.5C 184.822,333.33 185.989,333.663 187,334.5C 187.493,338.968 188.493,343.302 190,347.5C 190.272,337.966 191.105,328.632 192.5,319.5 Z"/></g>
<g><path style="opacity:1" fill="#1e2d36" d="M 398.5,271.5 C 399.496,285.323 399.829,299.323 399.5,313.5C 399.333,333.169 399.5,352.836 400,372.5C 400.383,371.944 400.883,371.611 401.5,371.5C 399.006,373.867 396.673,376.533 394.5,379.5C 388.913,382.706 383.247,386.039 377.5,389.5C 376.914,389.291 376.414,388.957 376,388.5C 375.5,359.169 375.333,329.835 375.5,300.5C 373.833,300.5 372.167,300.5 370.5,300.5C 370.5,300.167 370.5,299.833 370.5,299.5C 372.129,298.375 373.629,297.041 375,295.5C 379.687,288.659 384.52,281.992 389.5,275.5C 390.492,275.672 391.158,275.338 391.5,274.5C 392.167,274.5 392.5,274.167 392.5,273.5C 394.858,273.747 396.858,273.081 398.5,271.5 Z"/></g>
<g><path style="opacity:1" fill="#4f5c66" d="M 315.5,351.5 C 315.5,359.167 315.5,366.833 315.5,374.5C 314.502,385.138 313.835,395.804 313.5,406.5C 306.825,406.666 300.158,406.5 293.5,406C 292.62,404.644 292.286,403.144 292.5,401.5C 292.5,388.5 292.5,375.5 292.5,362.5C 293.29,363.609 293.79,364.942 294,366.5C 295.252,364.999 296.252,363.332 297,361.5C 299.19,362.584 300.856,361.917 302,359.5C 305.836,361.389 310.003,362.055 314.5,361.5C 314.187,357.958 314.521,354.625 315.5,351.5 Z"/></g>
<g><path style="opacity:1" fill="#1c3546" d="M 291.5,327.5 C 291.23,339.204 291.564,350.871 292.5,362.5C 292.5,375.5 292.5,388.5 292.5,401.5C 291.883,401.389 291.383,401.056 291,400.5C 290.163,402.351 289.329,404.184 288.5,406C 281.526,406.847 274.693,406.347 268,404.5C 267.5,389.17 267.333,373.837 267.5,358.5C 267.833,358.5 268.167,358.5 268.5,358.5C 268.334,364.842 268.5,371.175 269,377.5C 269.974,375.122 270.641,375.456 271,378.5C 274.877,376.958 278.043,377.958 280.5,381.5C 281.167,381.167 281.833,380.833 282.5,380.5C 284.335,383.401 286.669,384.067 289.5,382.5C 289.919,363.999 290.586,345.666 291.5,327.5 Z"/></g>
</svg>
